<svg width="200" height="93" viewBox="0 0 200 93" fill="none" xmlns="http://www.w3.org/2000/svg">
<path d="M90.152 46.928C93.48 46.928 96.12 47.936 98.072 49.952C100.056 51.968 101.048 54.768 101.048 58.352V74H92.888V59.456C92.888 57.728 92.424 56.4 91.496 55.472C90.6 54.512 89.352 54.032 87.752 54.032C86.152 54.032 84.888 54.512 83.96 55.472C83.064 56.4 82.616 57.728 82.616 59.456V74H74.456V59.456C74.456 57.728 73.992 56.4 73.064 55.472C72.168 54.512 70.92 54.032 69.32 54.032C67.72 54.032 66.456 54.512 65.528 55.472C64.632 56.4 64.184 57.728 64.184 59.456V74H55.976V47.216H64.184V50.576C65.016 49.456 66.104 48.576 67.448 47.936C68.792 47.264 70.312 46.928 72.008 46.928C74.024 46.928 75.816 47.36 77.384 48.224C78.984 49.088 80.232 50.32 81.128 51.92C82.056 50.448 83.32 49.248 84.92 48.32C86.52 47.392 88.264 46.928 90.152 46.928ZM114.997 51.008C115.765 49.76 116.869 48.752 118.309 47.984C119.749 47.216 121.397 46.832 123.253 46.832C125.461 46.832 127.461 47.392 129.253 48.512C131.045 49.632 132.453 51.232 133.477 53.312C134.533 55.392 135.061 57.808 135.061 60.56C135.061 63.312 134.533 65.744 133.477 67.856C132.453 69.936 131.045 71.552 129.253 72.704C127.461 73.824 125.461 74.384 123.253 74.384C121.365 74.384 119.717 74.016 118.309 73.28C116.901 72.512 115.797 71.504 114.997 70.256V74H106.789V38.48H114.997V51.008ZM126.709 60.56C126.709 58.512 126.133 56.912 124.981 55.76C123.861 54.576 122.469 53.984 120.805 53.984C119.173 53.984 117.781 54.576 116.629 55.76C115.509 56.944 114.949 58.56 114.949 60.608C114.949 62.656 115.509 64.272 116.629 65.456C117.781 66.64 119.173 67.232 120.805 67.232C122.437 67.232 123.829 66.64 124.981 65.456C126.133 64.24 126.709 62.608 126.709 60.56Z" fill="#F58220"/>
<path d="M147.575 51.008C148.375 49.76 149.479 48.752 150.887 47.984C152.295 47.216 153.943 46.832 155.831 46.832C158.039 46.832 160.039 47.392 161.831 48.512C163.623 49.632 165.031 51.232 166.055 53.312C167.111 55.392 167.639 57.808 167.639 60.56C167.639 63.312 167.111 65.744 166.055 67.856C165.031 69.936 163.623 71.552 161.831 72.704C160.039 73.824 158.039 74.384 155.831 74.384C153.975 74.384 152.327 74 150.887 73.232C149.479 72.464 148.375 71.472 147.575 70.256V86.768H139.367V47.216H147.575V51.008ZM159.287 60.56C159.287 58.512 158.711 56.912 157.559 55.76C156.439 54.576 155.047 53.984 153.383 53.984C151.751 53.984 150.359 54.576 149.207 55.76C148.087 56.944 147.527 58.56 147.527 60.608C147.527 62.656 148.087 64.272 149.207 65.456C150.359 66.64 151.751 67.232 153.383 67.232C155.015 67.232 156.407 66.64 157.559 65.456C158.711 64.24 159.287 62.608 159.287 60.56ZM199.305 47.216L182.505 86.72H173.673L179.817 73.088L168.921 47.216H178.089L184.281 63.968L190.425 47.216H199.305Z" fill="#545454"/>
<path d="M19.9213 14L42 23.0573V52.5547L21 61L3.71518e-06 52.5547L0 23.0573L19.9213 14Z" fill="#545454"/>
<path d="M30.9213 0L53 9.05729V38.5547L32 47L11 38.5547L11 9.05729L30.9213 0Z" fill="#F58220" fill-opacity="0.8"/>
</svg>
